<svg width="1920" height="1347" viewBox="0 0 1920 1347" fill="none" xmlns="http://www.w3.org/2000/svg">
<path d="M359.208 633.738L359.208 1183.09L-116.543 908.413L359.208 633.738Z" stroke="#EBEBEB"/>
<circle cx="358.896" cy="1182.88" r="5" transform="rotate(-30 358.896 1182.88)" fill="#F2F2F2"/>
<circle cx="359.053" cy="633.154" r="5" transform="rotate(-30 359.053 633.154)" fill="#F2F2F2"/>
<path d="M487.594 75.3811L487.594 331.777L265.549 203.579L487.594 75.3811Z" stroke="#EBEBEB"/>
<path d="M1730.56 747.777L1730.56 491.381L1952.61 619.579L1730.56 747.777Z" stroke="#EBEBEB"/>
<path d="M1374.62 610.625L898.874 885.299L898.874 335.95L1374.62 610.625Z" stroke="#EBEBEB"/>
<circle cx="898.739" cy="335.198" r="5" transform="rotate(30 898.739 335.198)" fill="#F2F2F2"/>
<circle cx="898.896" cy="884.926" r="5" transform="rotate(30 898.896 884.926)" fill="#F2F2F2"/>
<circle cx="1375.05" cy="610.198" r="5" transform="rotate(30 1375.05 610.198)" fill="#F2F2F2"/>
</svg>
